<svg height="420pt" viewBox="0 -67 420.14611 420" width="420pt" xmlns="http://www.w3.org/2000/svg"><path d="m90 50.074219h320c.007812-22.09375-17.90625-40.007813-40-40h-320c-22.09375-.007813-40.007812 17.90625-40 40v186.699219c-.007812 22.09375 17.90625 40.003906 40 40v-186.699219c-.007812-22.09375 17.90625-40.007813 40-40zm0 0" fill="#d4e1f4"/><path d="m405.101562 41.273438-195.101562 108.800781-195.101562-108.800781c-4.832032-2.679688-10.917969-.933594-13.597657 3.898437-2.679687 4.832031-.933593 10.921875 3.898438 13.601563l200 111.5c1.503906.824218 3.1875 1.269531 4.902343 1.300781 1.71875.019531 3.414063-.429688 4.898438-1.300781l200-111.5c4.820312-2.6875 6.566406-8.765626 3.898438-13.601563-2.785157-4.820313-8.902344-6.546875-13.796876-3.898437zm0 0" fill="#1ae5be"/><path d="m370 .0742188h-320c-27.609375.0078124-49.9882812 22.3906252-50 50.0000002v186.699219c.0117188 27.609374 22.390625 49.988281 50 50h320c27.609375-.011719 49.988281-22.390626 50-50v-186.699219c-.011719-27.609375-22.390625-49.9921878-50-50.0000002zm30 236.5976562c-.046875 16.550781-13.453125 29.953125-30 30h-320c-16.546875-.046875-29.953125-13.449219-30-30v-186.597656c.046875-16.550781 13.453125-29.953125 30-30h320c16.546875.046875 29.953125 13.449219 30 30zm0 0" fill="#0635c9"/></svg>